# xmcd CD database file
#
# Track frame offsets:
#	150
#	16660
#	34534
#	52690
#	64964
#	81059
#	96349
#	115133
#	129473
#	143317
#	160324
#	178351
#	194599
#	213498
#	231473
#	248973
#	266291
#	283140
#	301502
#	318462
#
# Disc length: 4564 seconds
#
# Revision: 1
# Processed by: cddbd v1.5.2PL0 Copyright (c) Steve Scherf et al.
# Submitted via: CDex 1.51
#
DISCID=1411d214
DTITLE=Various Artist - ZM-P-BOX-Disc-2
DYEAR=1900
DGENRE=Blues
TTITLE0=Dizzee Rascal Ft Robbie Williams - Goin' Crazy
TTITLE1=Drake Ft Majid Jordan - Hold On We're Going Home
TTITLE2=Ellie Goulding - Burn
TTITLE3=Ellie Goulding - How Long Will I Love You
TTITLE4=Elton John and Gary Barlow - Face To Face
TTITLE5=Fall Out Boy - My Songs Know What You Did In The Dark
TTITLE6=Fall Out Boy - Where Did The Party Go
TTITLE7=Gabrielle Aplin - Please Don't Say You Love Me
TTITLE8=Gabz - Lighters (the one)
TTITLE9=Gary Barlow - Let Me Go
TTITLE10=Haim - Don't Save Me
TTITLE11=James Arthur - Your Nobody Til Somebody Loves You
TTITLE12=James Blunt - Bonfire Heart
TTITLE13=Jason Derulo - The Other Side
TTITLE14=Jason Derulo - Trumpets
TTITLE15=Jessie J - It's My Party
TTITLE16=Jessie J - Thunder
TTITLE17=Jessie J Ft Dizzee Rascal and Big Sean - Wild
TTITLE18=JLS - Billion Lights
TTITLE19=Justin Timberlake - Mirrors
EXTD=
EXTT0=
EXTT1=
EXTT2=
EXTT3=
EXTT4=
EXTT5=
EXTT6=
EXTT7=
EXTT8=
EXTT9=
EXTT10=
EXTT11=
EXTT12=
EXTT13=
EXTT14=
EXTT15=
EXTT16=
EXTT17=
EXTT18=
EXTT19=
PLAYORDER=
